<svg xmlns="http://www.w3.org/2000/svg" viewBox="0 0 200 250" width="200" height="250">
  <rect width="200" height="250" fill="#efe7d4"/>
  <!-- солнечный круг сзади -->
  <circle cx="100" cy="124" r="58" fill="#b8431f" opacity="0.18"/>
  <!-- очки кошачий глаз -->
  <g stroke="#1c1c1c" stroke-width="2.5" stroke-linejoin="round">
    <!-- левая линза -->
    <path d="M 26 110 Q 26 90 60 88 Q 92 88 92 110 Q 92 132 62 138 Q 32 138 26 124 Z" fill="#1c1c1c"/>
    <!-- правая линза -->
    <path d="M 108 110 Q 108 88 138 88 Q 174 90 174 110 Q 174 130 168 130 Q 138 138 108 124 Z" fill="#1c1c1c"/>
    <!-- переносица -->
    <path d="M 92 108 Q 100 102 108 108" fill="none"/>
    <!-- блики на линзах -->
    <path d="M 42 100 Q 50 96 60 96" stroke="#f7eedf" stroke-width="2" fill="none"/>
    <path d="M 124 100 Q 132 96 142 96" stroke="#f7eedf" stroke-width="2" fill="none"/>
    <!-- дужки -->
    <path d="M 26 110 L 14 104" fill="none"/>
    <path d="M 174 110 L 186 104" fill="none"/>
  </g>
  <!-- надпись внизу -->
  <text x="100" y="200" text-anchor="middle" font-family="Cormorant Garamond, Georgia, serif" font-style="italic" font-size="20" fill="#1c1c1c">шестидесятые</text>
</svg>
